/* XPM */
static char * close_pressed_xpm[] = {
"20 24 4 1",
" 	c None",
"3	c #143D52 s active_shadow_1",
"2	c #0A5E89 s active_color_1",
"1	c #007EBF s active_hilight_1",
"                    ",
"                    ",
"                    ",
"                    ",
"33333333333333333333",
"32222222222222222221",
"32222222222222222221",
"32222222222222222221",
"32221112222221112221",
"32221223222212232221",
"32222122322122322221",
"32222212231223222221",
"32222221222232222221",
"32222222122322222221",
"32222221222232222221",
"32222212231223222221",
"32222122322122322221",
"32221223222212232221",
"32221332222223332221",
"32222222222222222221",
"32222222222222222221",
"32222222222222222221",
"32222222222222222221",
"31111111111111111111"};
