/* cascading diagonal stripe texture */
#define diag_width 8
#define diag_height 8
static unsigned char diag_bits[] = {
	0x88, 0x88, 0x44, 0x44,
	0x11, 0x11, 0x22, 0x22
};
