/* XPM */
static char * close_inactive_xpm[] = {
"20 24 4 1",
" 	c None",
"1	c #FFFFFF s inactive_hilight_1",
"2	c #CCCCC7 s inactive_color_1",
"3	c #919189 s inactive_shadow_1",
"                    ",
"                    ",
"                    ",
"                    ",
"11111111111111111111",
"12222222222222222223",
"12222222222222222223",
"12222222222222222223",
"12221112222221112223",
"12221223222212232223",
"12222122322122322223",
"12222212231223222223",
"12222221222232222223",
"12222222122322222223",
"12222221222232222223",
"12222212231223222223",
"12222122322122322223",
"12221223222212232223",
"12221332222223332223",
"12222222222222222223",
"12222222222222222223",
"12222222222222222223",
"12222222222222222223",
"13333333333333333333"};
